<svg width="312" height="160" xmlns="http://www.w3.org/2000/svg" xmlns:xlink="http://www.w3.org/1999/xlink" xml:space="preserve" overflow="hidden"><g><g><g><g><g><path d="M54.4367 66.1436 101.264 66.1436 101.264 84.9809 54.4367 84.9809Z" stroke="#000000" stroke-width="0.487784" stroke-linecap="butt" stroke-linejoin="miter" stroke-miterlimit="8" stroke-opacity="1" fill="#FFFFFF" fill-rule="nonzero" fill-opacity="1" transform="matrix(1.00261 0 0 1 -54.2052 -26.2871)"/><text fill="#000000" fill-opacity="1" font-family="Microsoft YaHei,Microsoft YaHei_MSFontService,sans-serif" font-style="normal" font-variant="normal" font-weight="400" font-stretch="normal" font-size="83" text-anchor="start" direction="ltr" writing-mode="lr-tb" unicode-bidi="normal" text-decoration="none" transform="matrix(0.106703 0 0 0.106426 8.3285 52)">业务词</text><text fill="#000000" fill-opacity="1" font-family="Calibri,Calibri_MSFontService,sans-serif" font-style="normal" font-variant="normal" font-weight="400" font-stretch="normal" font-size="83" text-anchor="start" direction="ltr" writing-mode="lr-tb" unicode-bidi="normal" text-decoration="none" transform="matrix(0.106703 0 0 0.106426 34.7375 52)">1</text><path d="M54.4367 100.413 101.264 100.413 101.264 119.25 54.4367 119.25Z" stroke="#000000" stroke-width="0.487784" stroke-linecap="butt" stroke-linejoin="miter" stroke-miterlimit="8" stroke-opacity="1" fill="#FFFFFF" fill-rule="nonzero" fill-opacity="1" transform="matrix(1.00261 0 0 1 -54.2052 -26.2871)"/><text fill="#000000" fill-opacity="1" font-family="Microsoft YaHei,Microsoft YaHei_MSFontService,sans-serif" font-style="normal" font-variant="normal" font-weight="400" font-stretch="normal" font-size="83" text-anchor="start" direction="ltr" writing-mode="lr-tb" unicode-bidi="normal" text-decoration="none" transform="matrix(0.106703 0 0 0.106426 8.3285 87)">业务词</text><text fill="#000000" fill-opacity="1" font-family="Calibri,Calibri_MSFontService,sans-serif" font-style="normal" font-variant="normal" font-weight="400" font-stretch="normal" font-size="83" text-anchor="start" direction="ltr" writing-mode="lr-tb" unicode-bidi="normal" text-decoration="none" transform="matrix(0.106703 0 0 0.106426 34.7375 87)">2</text><path d="M122.975 56.6717 169.802 56.6717 169.802 75.509 122.975 75.509Z" stroke="#000000" stroke-width="0.487784" stroke-linecap="butt" stroke-linejoin="miter" stroke-miterlimit="8" stroke-opacity="1" fill="#FFFFFF" fill-rule="nonzero" fill-opacity="1" transform="matrix(1.00261 0 0 1 -54.2052 -26.2871)"/><text fill="#000000" fill-opacity="1" font-family="Microsoft YaHei,Microsoft YaHei_MSFontService,sans-serif" font-style="normal" font-variant="normal" font-weight="400" font-stretch="normal" font-size="83" text-anchor="start" direction="ltr" writing-mode="lr-tb" unicode-bidi="normal" text-decoration="none" transform="matrix(0.106703 0 0 0.106426 73.4993 43)">业务词</text><text fill="#000000" fill-opacity="1" font-family="Calibri,Calibri_MSFontService,sans-serif" font-style="normal" font-variant="normal" font-weight="400" font-stretch="normal" font-size="83" text-anchor="start" direction="ltr" writing-mode="lr-tb" unicode-bidi="normal" text-decoration="none" transform="matrix(0.106703 0 0 0.106426 99.9083 43)">1</text><text fill="#000000" fill-opacity="1" font-family="Calibri,Calibri_MSFontService,sans-serif" font-style="normal" font-variant="normal" font-weight="400" font-stretch="normal" font-size="83" text-anchor="start" direction="ltr" writing-mode="lr-tb" unicode-bidi="normal" text-decoration="none" transform="matrix(0.106703 0 0 0.106426 104.372 43)">-</text><text fill="#000000" fill-opacity="1" font-family="Calibri,Calibri_MSFontService,sans-serif" font-style="normal" font-variant="normal" font-weight="400" font-stretch="normal" font-size="83" text-anchor="start" direction="ltr" writing-mode="lr-tb" unicode-bidi="normal" text-decoration="none" transform="matrix(0.106703 0 0 0.106426 107.061 43)">1</text><path d="M122.975 84.9809 169.802 84.9809 169.802 103.712 122.975 103.712Z" stroke="#000000" stroke-width="0.487784" stroke-linecap="butt" stroke-linejoin="miter" stroke-miterlimit="8" stroke-opacity="1" fill="#FFFFFF" fill-rule="nonzero" fill-opacity="1" transform="matrix(1.00261 0 0 1 -54.2052 -26.2871)"/><text fill="#000000" fill-opacity="1" font-family="Microsoft YaHei,Microsoft YaHei_MSFontService,sans-serif" font-style="normal" font-variant="normal" font-weight="400" font-stretch="normal" font-size="83" text-anchor="start" direction="ltr" writing-mode="lr-tb" unicode-bidi="normal" text-decoration="none" transform="matrix(0.106703 0 0 0.106426 73.4993 71)">业务词</text><text fill="#000000" fill-opacity="1" font-family="Calibri,Calibri_MSFontService,sans-serif" font-style="normal" font-variant="normal" font-weight="400" font-stretch="normal" font-size="83" text-anchor="start" direction="ltr" writing-mode="lr-tb" unicode-bidi="normal" text-decoration="none" transform="matrix(0.106703 0 0 0.106426 99.9083 71)">1</text><text fill="#000000" fill-opacity="1" font-family="Calibri,Calibri_MSFontService,sans-serif" font-style="normal" font-variant="normal" font-weight="400" font-stretch="normal" font-size="83" text-anchor="start" direction="ltr" writing-mode="lr-tb" unicode-bidi="normal" text-decoration="none" transform="matrix(0.106703 0 0 0.106426 104.372 71)">-</text><text fill="#000000" fill-opacity="1" font-family="Calibri,Calibri_MSFontService,sans-serif" font-style="normal" font-variant="normal" font-weight="400" font-stretch="normal" font-size="83" text-anchor="start" direction="ltr" writing-mode="lr-tb" unicode-bidi="normal" text-decoration="none" transform="matrix(0.106703 0 0 0.106426 107.061 71)">2</text><path d="M122.975 112.971 169.802 112.971 169.802 131.808 122.975 131.808Z" stroke="#000000" stroke-width="0.487784" stroke-linecap="butt" stroke-linejoin="miter" stroke-miterlimit="8" stroke-opacity="1" fill="#FFFFFF" fill-rule="nonzero" fill-opacity="1" transform="matrix(1.00261 0 0 1 -54.2052 -26.2871)"/><text fill="#000000" fill-opacity="1" font-family="Microsoft YaHei,Microsoft YaHei_MSFontService,sans-serif" font-style="normal" font-variant="normal" font-weight="400" font-stretch="normal" font-size="83" text-anchor="start" direction="ltr" writing-mode="lr-tb" unicode-bidi="normal" text-decoration="none" transform="matrix(0.106703 0 0 0.106426 73.4993 99)">业务词</text><text fill="#000000" fill-opacity="1" font-family="Calibri,Calibri_MSFontService,sans-serif" font-style="normal" font-variant="normal" font-weight="400" font-stretch="normal" font-size="83" text-anchor="start" direction="ltr" writing-mode="lr-tb" unicode-bidi="normal" text-decoration="none" transform="matrix(0.106703 0 0 0.106426 99.9083 99)">1</text><text fill="#000000" fill-opacity="1" font-family="Calibri,Calibri_MSFontService,sans-serif" font-style="normal" font-variant="normal" font-weight="400" font-stretch="normal" font-size="83" text-anchor="start" direction="ltr" writing-mode="lr-tb" unicode-bidi="normal" text-decoration="none" transform="matrix(0.106703 0 0 0.106426 104.372 99)">-</text><text fill="#000000" fill-opacity="1" font-family="Calibri,Calibri_MSFontService,sans-serif" font-style="normal" font-variant="normal" font-weight="400" font-stretch="normal" font-size="83" text-anchor="start" direction="ltr" writing-mode="lr-tb" unicode-bidi="normal" text-decoration="none" transform="matrix(0.106703 0 0 0.106426 107.061 99)">3</text><path d="M187.362 56.6717 234.19 56.6717 234.19 75.509 187.362 75.509Z" stroke="#000000" stroke-width="0.487784" stroke-linecap="butt" stroke-linejoin="miter" stroke-miterlimit="8" stroke-opacity="1" fill="#FFFFFF" fill-rule="nonzero" fill-opacity="1" transform="matrix(1.00261 0 0 1 -54.2052 -26.2871)"/><text fill="#000000" fill-opacity="1" font-family="DengXian,DengXian_MSFontService,sans-serif" font-style="normal" font-variant="normal" font-weight="400" font-stretch="normal" font-size="83" text-anchor="start" direction="ltr" writing-mode="lr-tb" unicode-bidi="normal" text-decoration="none" transform="matrix(0.106703 0 0 0.106426 146.033 43)">功能</text><text fill="#000000" fill-opacity="1" font-family="Calibri,Calibri_MSFontService,sans-serif" font-style="normal" font-variant="normal" font-weight="400" font-stretch="normal" font-size="83" text-anchor="start" direction="ltr" writing-mode="lr-tb" unicode-bidi="normal" text-decoration="none" transform="matrix(0.106703 0 0 0.106426 163.639 43)">1</text><path d="M187.362 84.9809 234.19 84.9809 234.19 103.712 187.362 103.712Z" stroke="#000000" stroke-width="0.487784" stroke-linecap="butt" stroke-linejoin="miter" stroke-miterlimit="8" stroke-opacity="1" fill="#FFFFFF" fill-rule="nonzero" fill-opacity="1" transform="matrix(1.00261 0 0 1 -54.2052 -26.2871)"/><text fill="#000000" fill-opacity="1" font-family="DengXian,DengXian_MSFontService,sans-serif" font-style="normal" font-variant="normal" font-weight="400" font-stretch="normal" font-size="83" text-anchor="start" direction="ltr" writing-mode="lr-tb" unicode-bidi="normal" text-decoration="none" transform="matrix(0.106703 0 0 0.106426 146.033 71)">功能</text><text fill="#000000" fill-opacity="1" font-family="Calibri,Calibri_MSFontService,sans-serif" font-style="normal" font-variant="normal" font-weight="400" font-stretch="normal" font-size="83" text-anchor="start" direction="ltr" writing-mode="lr-tb" unicode-bidi="normal" text-decoration="none" transform="matrix(0.106703 0 0 0.106426 163.639 71)">2</text><path d="M188.001 113.184 234.828 113.184 234.828 131.915 188.001 131.915Z" stroke="#000000" stroke-width="0.487784" stroke-linecap="butt" stroke-linejoin="miter" stroke-miterlimit="8" stroke-opacity="1" fill="#FFFFFF" fill-rule="nonzero" fill-opacity="1" transform="matrix(1.00261 0 0 1 -54.2052 -26.2871)"/><text fill="#000000" fill-opacity="1" font-family="DengXian,DengXian_MSFontService,sans-serif" font-style="normal" font-variant="normal" font-weight="400" font-stretch="normal" font-size="83" text-anchor="start" direction="ltr" writing-mode="lr-tb" unicode-bidi="normal" text-decoration="none" transform="matrix(0.106703 0 0 0.106426 146.661 99)">功能</text><text fill="#000000" fill-opacity="1" font-family="Calibri,Calibri_MSFontService,sans-serif" font-style="normal" font-variant="normal" font-weight="400" font-stretch="normal" font-size="83" text-anchor="start" direction="ltr" writing-mode="lr-tb" unicode-bidi="normal" text-decoration="none" transform="matrix(0.106703 0 0 0.106426 164.267 99)">3</text><path d="M252.495 50.6586C252.495 43.6935 261.93 38.0472 273.567 38.0472 285.205 38.0472 294.64 43.6935 294.64 50.6586 294.64 57.6238 285.205 63.2701 273.567 63.2701 261.93 63.2701 252.495 57.6238 252.495 50.6586Z" stroke="#000000" stroke-width="0.487784" stroke-linecap="butt" stroke-linejoin="miter" stroke-miterlimit="8" stroke-opacity="1" fill="#FFFFFF" fill-rule="evenodd" fill-opacity="1" transform="matrix(1.00261 0 0 1 -54.2052 -26.2871)"/><text fill="#000000" fill-opacity="1" font-family="Microsoft YaHei,Microsoft YaHei_MSFontService,sans-serif" font-style="normal" font-variant="normal" font-weight="400" font-stretch="normal" font-size="83" text-anchor="start" direction="ltr" writing-mode="lr-tb" unicode-bidi="normal" text-decoration="none" transform="matrix(0.106703 0 0 0.106426 208.986 27)">代码</text><text fill="#000000" fill-opacity="1" font-family="Calibri,Calibri_MSFontService,sans-serif" font-style="normal" font-variant="normal" font-weight="400" font-stretch="normal" font-size="83" text-anchor="start" direction="ltr" writing-mode="lr-tb" unicode-bidi="normal" text-decoration="none" transform="matrix(0.106703 0 0 0.106426 226.592 27)">1</text><path d="M307.73 66.6225C307.73 59.6574 317.188 54.011 328.855 54.011 340.523 54.011 349.981 59.6574 349.981 66.6225 349.981 73.5876 340.523 79.2339 328.855 79.2339 317.188 79.2339 307.73 73.5876 307.73 66.6225Z" stroke="#000000" stroke-width="0.487784" stroke-linecap="butt" stroke-linejoin="miter" stroke-miterlimit="8" stroke-opacity="1" fill="#FFFFFF" fill-rule="evenodd" fill-opacity="1" transform="matrix(1.00261 0 0 1 -54.2052 -26.2871)"/><text fill="#000000" fill-opacity="1" font-family="Microsoft YaHei,Microsoft YaHei_MSFontService,sans-serif" font-style="normal" font-variant="normal" font-weight="400" font-stretch="normal" font-size="83" text-anchor="start" direction="ltr" writing-mode="lr-tb" unicode-bidi="normal" text-decoration="none" transform="matrix(0.106703 0 0 0.106426 264.454 43)">代码</text><text fill="#000000" fill-opacity="1" font-family="Calibri,Calibri_MSFontService,sans-serif" font-style="normal" font-variant="normal" font-weight="400" font-stretch="normal" font-size="83" text-anchor="start" direction="ltr" writing-mode="lr-tb" unicode-bidi="normal" text-decoration="none" transform="matrix(0.106703 0 0 0.106426 282.06 43)">6</text><path d="M257.497 107.011C257.497 100.017 266.955 94.3464 278.622 94.3464 290.29 94.3464 299.748 100.017 299.748 107.011 299.748 114.005 290.29 119.676 278.622 119.676 266.955 119.676 257.497 114.005 257.497 107.011Z" stroke="#000000" stroke-width="0.487784" stroke-linecap="butt" stroke-linejoin="miter" stroke-miterlimit="8" stroke-opacity="1" fill="#FFFFFF" fill-rule="evenodd" fill-opacity="1" transform="matrix(1.00261 0 0 1 -54.2052 -26.2871)"/><text fill="#000000" fill-opacity="1" font-family="Microsoft YaHei,Microsoft YaHei_MSFontService,sans-serif" font-style="normal" font-variant="normal" font-weight="400" font-stretch="normal" font-size="83" text-anchor="start" direction="ltr" writing-mode="lr-tb" unicode-bidi="normal" text-decoration="none" transform="matrix(0.106703 0 0 0.106426 214.047 84)">代码</text><text fill="#000000" fill-opacity="1" font-family="Calibri,Calibri_MSFontService,sans-serif" font-style="normal" font-variant="normal" font-weight="400" font-stretch="normal" font-size="83" text-anchor="start" direction="ltr" writing-mode="lr-tb" unicode-bidi="normal" text-decoration="none" transform="matrix(0.106703 0 0 0.106426 231.653 84)">2</text><path d="M309.965 109.299C309.965 102.334 319.423 96.6878 331.09 96.6878 342.758 96.6878 352.216 102.334 352.216 109.299 352.216 116.265 342.758 121.911 331.09 121.911 319.423 121.911 309.965 116.265 309.965 109.299Z" stroke="#000000" stroke-width="0.487784" stroke-linecap="butt" stroke-linejoin="miter" stroke-miterlimit="8" stroke-opacity="1" fill="#FFFFFF" fill-rule="evenodd" fill-opacity="1" transform="matrix(1.00261 0 0 1 -54.2052 -26.2871)"/><text fill="#000000" fill-opacity="1" font-family="Microsoft YaHei,Microsoft YaHei_MSFontService,sans-serif" font-style="normal" font-variant="normal" font-weight="400" font-stretch="normal" font-size="83" text-anchor="start" direction="ltr" writing-mode="lr-tb" unicode-bidi="normal" text-decoration="none" transform="matrix(0.106703 0 0 0.106426 266.655 86)">代码</text><text fill="#000000" fill-opacity="1" font-family="Calibri,Calibri_MSFontService,sans-serif" font-style="normal" font-variant="normal" font-weight="400" font-stretch="normal" font-size="83" text-anchor="start" direction="ltr" writing-mode="lr-tb" unicode-bidi="normal" text-decoration="none" transform="matrix(0.106703 0 0 0.106426 284.261 86)">4</text><path d="M256.965 150.433C256.965 143.438 266.423 137.768 278.09 137.768 289.758 137.768 299.216 143.438 299.216 150.433 299.216 157.427 289.758 163.097 278.09 163.097 266.423 163.097 256.965 157.427 256.965 150.433Z" stroke="#000000" stroke-width="0.487784" stroke-linecap="butt" stroke-linejoin="miter" stroke-miterlimit="8" stroke-opacity="1" fill="#FFFFFF" fill-rule="evenodd" fill-opacity="1" transform="matrix(1.00261 0 0 1 -54.2052 -26.2871)"/><text fill="#000000" fill-opacity="1" font-family="Microsoft YaHei,Microsoft YaHei_MSFontService,sans-serif" font-style="normal" font-variant="normal" font-weight="400" font-stretch="normal" font-size="83" text-anchor="start" direction="ltr" writing-mode="lr-tb" unicode-bidi="normal" text-decoration="none" transform="matrix(0.106703 0 0 0.106426 213.523 127)">代码</text><text fill="#000000" fill-opacity="1" font-family="Calibri,Calibri_MSFontService,sans-serif" font-style="normal" font-variant="normal" font-weight="400" font-stretch="normal" font-size="83" text-anchor="start" direction="ltr" writing-mode="lr-tb" unicode-bidi="normal" text-decoration="none" transform="matrix(0.106703 0 0 0.106426 231.129 127)">5</text><path d="M307.411 151.923C307.411 144.928 316.845 139.258 328.483 139.258 340.121 139.258 349.555 144.928 349.555 151.923 349.555 158.917 340.121 164.587 328.483 164.587 316.845 164.587 307.411 158.917 307.411 151.923Z" stroke="#000000" stroke-width="0.487784" stroke-linecap="butt" stroke-linejoin="miter" stroke-miterlimit="8" stroke-opacity="1" fill="#FFFFFF" fill-rule="evenodd" fill-opacity="1" transform="matrix(1.00261 0 0 1 -54.2052 -26.2871)"/><text fill="#000000" fill-opacity="1" font-family="Microsoft YaHei,Microsoft YaHei_MSFontService,sans-serif" font-style="normal" font-variant="normal" font-weight="400" font-stretch="normal" font-size="83" text-anchor="start" direction="ltr" writing-mode="lr-tb" unicode-bidi="normal" text-decoration="none" transform="matrix(0.106703 0 0 0.106426 264.035 129)">代码</text><text fill="#000000" fill-opacity="1" font-family="Calibri,Calibri_MSFontService,sans-serif" font-style="normal" font-variant="normal" font-weight="400" font-stretch="normal" font-size="83" text-anchor="start" direction="ltr" writing-mode="lr-tb" unicode-bidi="normal" text-decoration="none" transform="matrix(0.106703 0 0 0.106426 281.641 129)">3</text><path d="M256.965 109.299C256.965 94.2816 278.216 82.1074 304.431 82.1074 330.646 82.1074 351.897 94.2816 351.897 109.299 351.897 124.317 330.646 136.491 304.431 136.491 278.216 136.491 256.965 124.317 256.965 109.299Z" stroke="#172C51" stroke-width="0.487784" stroke-linecap="butt" stroke-linejoin="miter" stroke-miterlimit="8" stroke-dasharray="1.95113 1.46335 0.487784 1.46335" stroke-opacity="1" fill="none" fill-rule="evenodd" transform="matrix(1.00261 0 0 1 -54.2052 -26.2871)"/><path d="M270.983 89.9829C264.78 88.1339 258.576 86.2849 254.672 81.1911 250.769 76.0975 248.399 65.7706 247.563 59.421 246.727 53.0713 247.842 47.8381 249.653 43.0934 251.466 38.3486 254.533 33.6038 258.437 30.9523 262.339 28.3008 266.173 27.7426 273.073 27.1844 279.974 26.6262 290.221 25.9284 299.84 27.603 309.458 29.2777 321.239 33.1851 330.787 37.2322 340.337 41.2792 351.42 46.6519 357.135 51.8852 362.851 57.1184 365.29 63.6076 365.081 68.6314 364.872 73.6553 359.505 78.749 355.88 82.0285 352.256 85.3079 346.261 86.9826 343.334 88.3083 340.407 89.6341 339.361 89.8085 338.316 89.9829" stroke="#000000" stroke-width="0.365838" stroke-linecap="butt" stroke-linejoin="round" stroke-miterlimit="10" stroke-dasharray="1.46335 1.09752" stroke-opacity="1" fill="none" fill-rule="evenodd" transform="matrix(1.00261 0 0 1 -54.2052 -26.2871)"/><path d="M263.016 122.549C259.356 126.906 255.696 131.264 253.396 135.935 251.095 140.606 249.91 147.02 249.213 150.575 248.516 154.131 248.447 154.48 249.213 157.268 249.98 160.058 251.235 163.753 253.815 167.308 256.393 170.863 259.113 176.023 264.69 178.603 270.267 181.182 280.098 181.74 287.278 182.785 294.459 183.831 301.431 185.156 307.775 184.877 314.119 184.599 320.115 182.716 325.343 181.112 330.572 179.508 334.267 178.253 339.147 175.255 344.027 172.259 351.417 168.214 354.624 163.125 357.831 158.036 358.389 148.902 358.389 144.72 358.389 140.536 356.366 140.467 354.624 138.027 352.881 135.586 350.301 131.822 347.931 130.079 345.561 128.336 342.981 127.952 340.402 127.569" stroke="#000000" stroke-width="0.365838" stroke-linecap="butt" stroke-linejoin="round" stroke-miterlimit="10" stroke-dasharray="1.46335 1.09752" stroke-opacity="1" fill="none" fill-rule="evenodd" transform="matrix(1.00261 0 0 1 -54.2052 -26.2871)"/><path d="M0.145279-0.335755 19.6482 8.103 19.3577 8.77451-0.145279 0.335755ZM19.6364 6.90204 21.7413 9.40729 18.4741 9.58808Z" fill="#000000" fill-rule="nonzero" fill-opacity="1" transform="matrix(1.00261 0 0 -1 47.3228 49.2637)"/><path d="M101.503 75.2324 121.401 92.4509 120.922 93.0042 101.025 75.7856ZM121.75 91.3019 123.006 94.3236 119.834 93.515Z" fill="#000000" fill-rule="nonzero" fill-opacity="1" transform="matrix(1.00261 0 0 1 -54.2052 -26.2871)"/><path d="M101.596 75.3549 122.31 119.971 121.647 120.278 100.932 75.6631ZM123.1 119.066 123.006 122.336 120.445 120.298Z" fill="#000000" fill-rule="nonzero" fill-opacity="1" transform="matrix(1.00261 0 0 1 -54.2052 -26.2871)"/><path d="M0.327528-0.162981 20.9823 41.3451 20.3272 41.671-0.327528 0.162981ZM21.7476 40.4194 21.7413 43.6916 19.1274 41.7232Z" fill="#000000" fill-rule="nonzero" fill-opacity="1" transform="matrix(1.00261 0 0 -1 47.3228 83.5484)"/><path d="M101.447 109.461 121.075 120.786 120.71 121.419 101.081 110.095ZM121.202 119.592 123.006 122.321 119.738 122.127Z" fill="#000000" fill-rule="nonzero" fill-opacity="1" transform="matrix(1.00261 0 0 1 -54.2052 -26.2871)"/><path d="M8.00173e-07-0.365838 15.1213-0.365805 15.1213 0.365871-8.00173e-07 0.365838ZM14.6335-1.46332 17.5602 3.84082e-05 14.6335 1.46339Z" fill="#000000" fill-rule="nonzero" fill-opacity="1" transform="matrix(1.00261 0 0 -1 116.04 39.8564)"/><path d="M169.802 93.9806 184.923 93.9806 184.923 94.7123 169.802 94.7123ZM184.436 92.883 187.362 94.3464 184.436 95.8097Z" fill="#000000" fill-rule="nonzero" fill-opacity="1" transform="matrix(1.00261 0 0 1 -54.2052 -26.2871)"/><path d="M169.806 121.97 185.555 122.151 185.547 122.883 169.798 122.702ZM185.08 121.049 187.989 122.545 185.047 123.975Z" fill="#000000" fill-rule="nonzero" fill-opacity="1" transform="matrix(1.00261 0 0 1 -54.2052 -26.2871)"/><path d="M299.281 150.073 305.033 151.105 304.903 151.825 299.151 150.792ZM304.747 149.939 307.369 151.896 304.23 152.819Z" fill="#000000" fill-rule="nonzero" fill-opacity="1" transform="matrix(1.00261 0 0 1 -54.2052 -26.2871)"/><path d="M0.361758-0.0544876 2.61192 14.8849 1.88841 14.9939-0.361758 0.0544876ZM3.62454 14.2391 2.61341 17.3511 0.730478 14.675Z" fill="#000000" fill-rule="nonzero" fill-opacity="1" transform="matrix(1.00261 0 0 -1 275.134 112.975)"/><path d="M299.828 106.655 307.692 108.419 307.532 109.133 299.668 107.368ZM307.456 107.242 309.991 109.311 306.816 110.097Z" fill="#000000" fill-rule="nonzero" fill-opacity="1" transform="matrix(1.00261 0 0 1 -54.2052 -26.2871)"/><path d="M0.104921-0.35047 48.0449 14.0015 47.8352 14.7024-0.104921 0.35047ZM47.8925 12.8101 50.2766 15.0515 47.0531 15.6139Z" fill="#000000" fill-rule="nonzero" fill-opacity="1" transform="matrix(1.00261 0 0 -1 225.09 67.9983)"/><path d="M313.795 58.0754 296.806 51.89 297.056 51.2025 314.045 57.3878ZM296.889 53.0881 294.64 50.7118 297.89 50.3381Z" fill="#000000" fill-rule="nonzero" fill-opacity="1" transform="matrix(1.00261 0 0 1 -54.2052 -26.2871)"/><text fill="#000000" fill-opacity="1" font-family="Microsoft YaHei,Microsoft YaHei_MSFontService,sans-serif" font-style="normal" font-variant="normal" font-weight="400" font-stretch="normal" font-size="83" text-anchor="start" direction="ltr" writing-mode="lr-tb" unicode-bidi="normal" text-decoration="none" transform="matrix(0.106703 0 0 0.106426 257.841 17)">任务</text><text fill="#000000" fill-opacity="1" font-family="Calibri,Calibri_MSFontService,sans-serif" font-style="normal" font-variant="normal" font-weight="400" font-stretch="normal" font-size="83" text-anchor="start" direction="ltr" writing-mode="lr-tb" unicode-bidi="normal" text-decoration="none" transform="matrix(0.106703 0 0 0.106426 275.447 17)">1</text><text fill="#000000" fill-opacity="1" font-family="Microsoft YaHei,Microsoft YaHei_MSFontService,sans-serif" font-style="normal" font-variant="normal" font-weight="400" font-stretch="normal" font-size="83" text-anchor="start" direction="ltr" writing-mode="lr-tb" unicode-bidi="normal" text-decoration="none" transform="matrix(0.106703 0 0 0.106426 242.05 102)">任务</text><text fill="#000000" fill-opacity="1" font-family="Calibri,Calibri_MSFontService,sans-serif" font-style="normal" font-variant="normal" font-weight="400" font-stretch="normal" font-size="83" text-anchor="start" direction="ltr" writing-mode="lr-tb" unicode-bidi="normal" text-decoration="none" transform="matrix(0.106703 0 0 0.106426 259.656 102)">2</text><path d="M0.163607-0.327216 11.3614 5.27167 11.0342 5.9261-0.163607 0.327216ZM11.416 4.07188 13.3792 6.6896 10.1071 6.6896Z" fill="#000000" fill-rule="nonzero" fill-opacity="1" transform="matrix(1.00261 0 0 -1 180.595 39.8412)"/><path d="M234.391 94.0405 255.138 107.65 254.736 108.262 233.989 94.6523ZM255.332 106.465 256.977 109.294 253.726 108.912Z" fill="#000000" fill-rule="nonzero" fill-opacity="1" transform="matrix(1.00261 0 0 1 -54.2052 -26.2871)"/><path d="M235.154 122.382 248.461 148.227 247.811 148.561 234.503 122.716ZM249.214 147.29 249.253 150.562 246.612 148.63Z" fill="#000000" fill-rule="nonzero" fill-opacity="1" transform="matrix(1.00261 0 0 1 -54.2052 -26.2871)"/><path d="M0.358596-0.0724321 12.6278 60.6701 11.9106 60.8149-0.358596 0.0724321ZM13.6071 59.9748 12.7521 63.1333 10.7384 60.5542Z" fill="#000000" fill-rule="nonzero" fill-opacity="1" transform="matrix(1.00261 0 0 -1 181.235 96.2844)"/><path d="M0.188002-0.313836 20.2553 11.7075 19.8793 12.3351-0.188002 0.313836ZM20.4008 10.5153 22.1595 13.2746 18.8968 13.026Z" fill="#000000" fill-rule="nonzero" fill-opacity="1" transform="matrix(1.00261 0 0 -1 181.235 96.2333)"/></g></g></g></g></g></svg>